<?xml version="1.0" encoding="utf-8"?>
<!-- Generator: Adobe Illustrator 16.0.4, SVG Export Plug-In . SVG Version: 6.00 Build 0)  -->
<!DOCTYPE svg PUBLIC "-//W3C//DTD SVG 1.1//EN" "http://www.w3.org/Graphics/SVG/1.1/DTD/svg11.dtd">
<svg version="1.1" id="Layer_1" xmlns="http://www.w3.org/2000/svg" xmlns:xlink="http://www.w3.org/1999/xlink" x="0px" y="0px"
	 width="185.255px" height="19.672px" viewBox="0 0 185.255 19.672" enable-background="new 0 0 185.255 19.672"
	 xml:space="preserve">
<g>
	<path fill="#FFFFFF" d="M5.938,0c2.922,0,5.353,0.923,7.29,2.768c1.938,1.846,2.907,4.197,2.907,7.055s-0.969,5.215-2.907,7.068
		c-1.938,1.854-4.368,2.781-7.29,2.781H0V0H5.938z M1.567,18.271h4.19c2.469,0,4.534-0.807,6.194-2.421s2.49-3.623,2.49-6.028
		c0-2.404-0.83-4.406-2.49-6.007c-1.66-1.6-3.725-2.399-6.194-2.399h-4.19V18.271z"/>
	<path fill="#FFFFFF" d="M26.419,0l8.199,19.672h-1.692l-2.261-5.438H20.426l-2.234,5.438h-1.72L24.699,0H26.419z M21.036,12.819
		h9.045L25.559,1.957L21.036,12.819z"/>
	<path fill="#FFFFFF" d="M47.468,0v1.416h-6.423v18.256h-1.568V1.416h-6.451V0H47.468z"/>
	<path fill="#FFFFFF" d="M55.848,0l8.2,19.672h-1.693l-2.261-5.438H49.854l-2.234,5.438H45.9L54.127,0H55.848z M50.465,12.819h9.045
		L54.987,1.957L50.465,12.819z"/>
	<path fill="#FFFFFF" d="M66.177,0h14.788v3.357H70.201v4.439h9.572v3.357h-9.572v8.518h-4.023V0z"/>
	<path fill="#FFFFFF" d="M88.621,11.584h-1.956v8.088h-4.009V0h8.976c1.701,0,3.136,0.574,4.301,1.721
		c1.165,1.138,1.748,2.576,1.748,4.314c0,1.637-0.573,2.937-1.721,3.898c-0.758,0.639-1.785,1.123-3.079,1.457l5.521,8.281h-4.87
		L88.621,11.584z M86.665,3.344v5.424h4.093c0.749,0,1.385-0.256,1.907-0.77s0.784-1.17,0.784-1.97s-0.262-1.447-0.784-1.942
		c-0.522-0.494-1.158-0.742-1.907-0.742H86.665z"/>
	<path fill="#FFFFFF" d="M99.904,0h14.761v3.357h-10.71v4.453h10.127v3.357h-10.127v5.161h10.71v3.343H99.904V0z"/>
	<path fill="#FFFFFF" d="M117.267,0h14.761v3.357h-10.71v4.453h10.127v3.357h-10.127v5.161h10.71v3.343h-14.761V0z"/>
	<path fill="#FFFFFF" d="M133.994,0h15.843v2.581l-10.6,13.748h11.002v3.343h-16.647v-2.649l10.668-13.72h-10.266V0z"/>
	<path fill="#FFFFFF" d="M152.147,0h14.761v3.357h-10.71v4.453h10.127v3.357h-10.127v5.161h10.71v3.343h-14.761V0z"/>
	<path fill="#FFFFFF" d="M175.474,11.584h-1.956v8.088h-4.009V0h8.976c1.701,0,3.136,0.574,4.301,1.721
		c1.165,1.138,1.748,2.576,1.748,4.314c0,1.637-0.573,2.937-1.721,3.898c-0.758,0.639-1.785,1.123-3.079,1.457l5.521,8.281h-4.87
		L175.474,11.584z M173.518,3.344v5.424h4.093c0.749,0,1.385-0.256,1.907-0.77s0.784-1.17,0.784-1.97s-0.262-1.447-0.784-1.942
		c-0.522-0.494-1.158-0.742-1.907-0.742H173.518z"/>
</g>
</svg>
