<?xml version="1.0" encoding="utf-8"?>
<!-- Generator: Adobe Illustrator 16.0.4, SVG Export Plug-In . SVG Version: 6.00 Build 0)  -->
<!DOCTYPE svg PUBLIC "-//W3C//DTD SVG 1.1//EN" "http://www.w3.org/Graphics/SVG/1.1/DTD/svg11.dtd">
<svg version="1.1" id="Layer_1" xmlns="http://www.w3.org/2000/svg" xmlns:xlink="http://www.w3.org/1999/xlink" x="0px" y="0px"
	 width="400.001px" height="40.756px" viewBox="0 0 400.001 40.756" enable-background="new 0 0 400.001 40.756"
	 xml:space="preserve">
<g>
	<path fill="#FFFFFF" d="M25.859,27.25c-2.198,4.793-6.038,7.189-11.52,7.189c-4.369,0-7.852-1.257-10.447-3.773
		C1.297,28.151,0,24.867,0,20.815c0-3.469,1.192-6.396,3.575-8.779c2.065-2.066,4.767-3.482,8.104-4.25l0.198,0.159
		c-1.748,1.218-3.151,2.781-4.21,4.688c-1.298,2.304-1.946,4.899-1.946,7.786c0,3.045,0.831,5.402,2.494,7.071
		c1.716,1.748,3.675,2.622,6.948,2.622c0.977,0,1.761-0.053,1.761-0.159V8.62c-1-0.079-3.018-0.556-5.607-1.43
		C8.833,6.343,7.462,6.462,6.67,6.462c-3.064,0-4.369,1.953-4.448,4.953H1.905c-0.582-1-0.872-2.662-0.872-3.721
		c0-1.854,0.596-3.582,1.788-4.642c1.191-1.059,2.873-1.725,5.045-1.725c1.535,0,3.707,0.435,6.515,1.441
		c2.807,1.006,4.687,1.476,5.64,1.476c1.695,0,2.542-0.546,2.542-1.606c0-0.927-0.503-1.399-1.509-1.399
		c-0.238,0-0.596,0.062-1.073,0.194l0.318-0.677c0.397-0.08,0.741-0.121,1.033-0.121c0.979,0,1.788,0.277,2.423,0.834
		c0.741,0.636,1.112,1.562,1.112,2.78c0,1.351-0.444,3.274-1.331,4.095c-0.888,0.821-1.979,2.069-3.277,2.069
		c-0.821,0-2.335,0-2.335,0v19.417c1-0.105,2.975-0.463,4.325-1.072c1.245-0.556,2.401-1.192,3.116-1.907L25.859,27.25z
		 M15.924,20.577c0,2.198-0.786,3.92-2.877,5.164l-3.048,1.907L9.31,27.171c1.271-0.768,1.614-1.828,1.614-3.178V12.394l-1.47,0.993
		l-0.36-0.675l6.83-3.655V20.577z"/>
	<path fill="#FFFFFF" d="M41.924,14.579l-1,0.954v17.12c0,2.092-0.508,3.807-2.03,5.144c-1.523,1.337-3.257,2.006-5.455,2.006
		c-0.874,0-1.619-0.133-2.36-0.397l-0.64-0.199c3.363,0,4.485-2.423,4.485-7.269V15.81l-2.493-2.264l-0.507,0.635v14.221
		l2.608,1.509l-3.867,3.654l-4.741-3.575v-0.08l1-0.794V4.132c0-1.139,0.057-2.119-0.313-2.94l0.2,0.38
		c0.794,0.53,1.379,1.843,1.512,2.843h0.079c1.006-2,2.781-3.518,5.323-3.915l-0.265-0.091c-0.768,1.007-1.536,1.975-1.536,3.326
		v9.732l4.007-3.615l5.993,4.647V14.579z"/>
	<path fill="#FFFFFF" d="M57.332,17.161l-8.408,5.363v4.886l4.913,2.423l2.437-2.105l0.642,0.477l-6.103,5.323l-7.889-4.052v-0.08
		l1-0.834V15.373c3-1.376,6.108-3.204,9.366-5.482L57.332,17.161z M52.685,19.544l-3.311-6.515l-0.45,0.08v8.66L52.685,19.544z"/>
	<path fill="#FFFFFF" d="M88.924,28.442c-2,1.245-4.634,3.297-7.282,6.157c-1.959-1.721-4.143-2.582-7.056-2.582
		c-4.714,0-6.945,1.152-6.945,3.456c0,0.9,0.44,1.648,1.195,2.245c0.755,0.596,1.614,0.894,2.515,0.894
		c1.006,0,1.803-0.252,2.359-0.755l-0.19,0.874c-0.689,0.318-1.506,0.477-2.459,0.477c-1.457,0-2.674-0.411-3.653-1.231
		c-1.086-0.928-1.628-2.199-1.628-3.813c0-2.198,0.657-3.933,2.75-5.204c1.986-1.218,4.396-1.828,7.396-1.828V7.15
		c-2,0.238-2.294,0.357-3.517,0.357c-2.737,0-4.509-0.477-5.704-1.43s-1.696-2.437-1.696-4.449c0-0.159,0.115-0.662,0.248-1.51
		l0.263-0.04c0.291,1.006,0.807,1.722,1.521,2.145c0.9,0.503,2.363,0.754,4.375,0.754c1.139,0,2.95-0.238,5.426-0.715
		c2.476-0.477,3.753-0.715,4.84-0.715c5.164,0,7.243,2.847,7.243,8.541V28.442z M75.552,8.541c-0.848,0.689-1.628,1.761-1.628,3.217
		v9.295c0,3.284-1.906,5.654-6.436,7.11l-0.533-0.397c1.403-0.609,1.969-1.92,1.969-3.933v-2.419H68.68c-1.404,0-2.238,0-2.502,1
		h-0.159c-0.397,0-0.596-0.917-0.596-1.765c0-2.356,1.178-3.235,3.536-3.235h-0.034v-3.432c0-3.019,2.163-4.926,6.214-5.72
		L75.552,8.541z M82.924,15.214v-4.489c0-1.509,0.413-2.588-0.087-3.237s-1.245-0.973-2.482-0.973c-0.554,0-2.431,0.172-3.431,0.516
		v8.183c1,0.318,1.914,0.477,2.941,0.477C81.234,15.691,81.924,15.532,82.924,15.214z M82.924,19.624V15.81
		c-1,0.318-1.743,0.477-3.059,0.477c-1.08,0-1.941-0.159-2.941-0.477v3.813c1-0.318,1.703-0.477,2.941-0.477
		C81.154,19.146,81.924,19.306,82.924,19.624z M82.924,30.415V20.18c-1-0.318-1.848-0.477-3.059-0.477
		c-1.106,0-1.941,0.159-2.941,0.477v6.951c2,0.318,5.805,2.284,7.288,3.284H82.924z"/>
	<path fill="#FFFFFF" d="M110.945,28.962l-4.528,4.604l-4.608-3.694l-4.806,3.694c-1.192-0.369-2.238-1.147-3.139-2.335
		c-1.032-1.346-1.549-2.824-1.549-4.434c0-1.742,0.477-3.246,1.43-4.513c0.874-1.188,2.052-2.019,3.535-2.495
		c-0.98-1.003-1.841-2.177-2.582-3.523c-0.821-1.531-1.231-2.863-1.231-3.999c0-0.686,0.199-1.26,0.596-1.722
		c0.397-0.462,0.899-0.693,1.509-0.693c1.244,0,1.102,0.663,1.102,1.987c0,0.936-0.75,1.494-2.75,1.675v0.039
		c1,0.234,1.69,0.351,2.353,0.351c0.741,0,2.025-0.463,3.084-1.39c0.9-0.768,1.371-1.655,2.033-2.662l5.53,3.773v0.08l-1,0.755
		v13.625l2.809,1.708l1.484-1.271L110.945,28.962z M100.924,18.988v-3.456l-2.1-1.828c-0.636,0.53-1.156,0.794-2.003,0.794
		c-1.112,0-1.81-0.225-2.312-0.675l-0.024,0.079c0.212,1.567,0.976,3.461,3.121,5.681C99.247,19.187,99.924,18.988,100.924,18.988z
		 M100.924,29.077v-9.533c-1,0-1.643,0.59-2.477,1.768c-0.835,1.179-1.031,2.47-1.031,3.873c0,2.701,0.502,4.449,2.17,5.244
		L100.924,29.077z"/>
	<path fill="#FFFFFF" d="M121.392,28.68l-5.654,4.846l-5.813-3.813v-0.08l1-0.635V4.251c0-1.113,0.579-2.079,0.208-2.9l0.463,0.8
		c0.741,0.583,1.587,1.264,1.773,3.264h0.079c1.112-3,2.913-3.938,5.402-4.336l-0.367-0.301c-0.769,1.112-1.559,1.871-1.559,3.115
		v24.152l2.273,1.47l1.435-1.311L121.392,28.68z"/>
	<path fill="#FFFFFF" d="M131.401,28.68l-5.159,4.846l-5.318-3.813v-0.08v-0.635V4.251c0-1.113,0.584-2.079,0.213-2.9l0.465,0.8
		c0.741,0.583,1.589,1.264,1.775,3.264h0.079c1.113-3,2.913-3.938,5.403-4.336l-0.372-0.301c-0.769,1.112-1.563,1.871-1.563,3.115
		v24.152l2.277,1.47l1.438-1.311L131.401,28.68z"/>
	<path fill="#FFFFFF" d="M150.944,28.962l-4.529,4.604l-4.608-3.694l-4.806,3.694c-1.191-0.369-2.238-1.147-3.138-2.335
		c-1.033-1.346-1.549-2.824-1.549-4.434c0-1.742,0.477-3.246,1.43-4.513c0.874-1.188,2.052-2.019,3.536-2.495
		c-0.98-1.003-1.841-2.177-2.582-3.523c-0.821-1.531-1.231-2.863-1.231-3.999c0-0.686,0.198-1.26,0.596-1.722
		c0.397-0.462,0.9-0.693,1.51-0.693c1.244,0,1.602,0.663,1.602,1.987c0,0.936-1.25,1.494-2.25,1.675v0.039
		c0,0.234,1.19,0.351,1.853,0.351c0.741,0,1.774-0.463,2.834-1.39c0.9-0.768,1.247-1.655,1.909-2.662l5.405,3.773v0.08l-1,0.755
		v13.625l2.808,1.708l1.484-1.271L150.944,28.962z M140.924,18.988v-3.456l-2.1-1.828c-0.636,0.53-1.157,0.794-2.004,0.794
		c-1.112,0-1.81-0.225-2.312-0.675l-0.024,0.079c0.211,1.567,0.975,3.461,3.121,5.681C139.246,19.187,139.924,18.988,140.924,18.988
		z M140.924,29.077v-9.533c-1,0-1.644,0.59-2.478,1.768c-0.834,1.179-1.03,2.47-1.03,3.873c0,2.701,0.502,4.449,2.171,5.244
		L140.924,29.077z"/>
	<path fill="#FFFFFF" d="M166.316,8.461c0,0.742-0.689,2.171-2.066,4.29l-3.775,5.362l4.448,2.384v8.62
		c-3,1.483-4.422,3.019-5.799,4.608c-1.165-1.112-2.296-1.668-3.673-1.668c-3.284,0-4.856,1.007-4.856,3.019
		c0,1.986,1.147,3.019,3.372,3.098l-0.578,0.675c-2.331-0.397-3.487-1.695-3.487-3.893c0-0.794,0.309-1.734,0.918-2.82
		c0.185-0.371,0.73-1.231,1.631-2.582l3.265-5.601l-5.792-2.741v-6.157c2-0.874,5.952-2.647,9.05-5.323
		c0.768,1.086,2.023,1.628,3.294,1.628c0.82,0,1.653-0.264,2.262-0.794s0.973-1.218,0.973-2.066c0-0.82-0.209-1.496-0.686-2.026
		l1.007,0.159C166.143,7.084,166.316,7.694,166.316,8.461z M158.924,23.397l-1.477-0.562l-4.12,7.581h0.04
		c1.006,0,1.725-1.463,3.314-1.463c1.112,0,2.243-0.205,2.243,0.404V23.397z M162.662,15.415h-0.04c-0.933,0-2.49,0.118-3.449,0.118
		c-1.199,0-3.249-1.232-4.249-2.345v5.084l3.273,2.146L162.662,15.415z"/>
	<path fill="#FFFFFF" d="M185.184,2.265c-0.292,0.265-0.663,0.596-1.113,0.993c-2.251,2.013-4.21,3.019-5.878,3.019
		c-0.397,0-1.119-0.12-2.165-0.358c-1.046-0.238-1.715-0.357-2.006-0.357c-1.642,0-2.463,0.61-2.463,1.827
		c0,1.192,0.755,1.801,2.264,1.828l-0.397,0.556c-1.907-0.132-2.86-1.284-2.86-3.456c0-1.43,0.477-2.549,1.43-3.356
		c0.953-0.808,2.198-1.212,3.734-1.212c0.847,0,1.946,0.246,3.297,0.735c1.351,0.491,2.264,0.735,2.741,0.735
		c0.741,0,1.337-0.119,1.788-0.357c0.265-0.132,0.688-0.463,1.271-0.993L185.184,2.265z M208.859,29.157l-5.429,4.965l-5.507-3.813
		V8.223l-3-2.423v11.615h1.819l-1.819,2.566v9.414l1.148,0.636l1.547-1.39l0.594,0.477l-5.51,5.005l-6.78-4.33v-0.08l1-0.794v-7.503
		h-1.263l1.191-4h0.072v-9.51l-4-2.502v18.669c0,3.099,0.514,5.217-0.082,6.356s-1.467,1.98-3.426,2.522
		c-1.96,0.543-3.068,1.059-3.73,1.549c-0.662,0.49-0.891,1.158-0.891,2.006c0,1.8,1.308,2.701,3.824,2.701
		c0.979,0,1.799-0.278,2.409-0.834l-0.186,0.953c-0.742,0.397-1.583,0.596-2.536,0.596c-1.588,0-2.936-0.384-4.048-1.152
		c-1.245-0.848-1.866-1.986-1.866-3.416c0-2.992,1.988-4.938,5.959-5.839c2.013-0.45,3.417-1.033,4.211-1.748
		c0.9-0.794,1.351-1.986,1.351-3.575l-0.159-18.272c-0.477,0.477-1.173,1.126-1.332,1.946c-0.08,0.503-0.498,1.47-0.498,2.9v13.148
		c0,1.191-0.264,2.224-1.548,3.098c-1.285,0.874-2.677,1.417-4.557,1.629l-0.881-0.437c1.112-0.609,0.986-1.589,0.986-2.939v-3.849
		h0.68c-1.404,0-2.238,0-2.502,1h-0.159c-0.397,0-0.596-0.917-0.596-1.765c0-2.356,1.178-3.235,3.536-3.235h-0.958v-3.697
		c0-1.29,1.16-2.456,1.929-3.496c0.768-1.041,2.746-2.614,5.156-4.72l4.484-3.753l6.453,4.012l3.682-4.21l7.297,4.33v0.08l-1,0.993
		v21.609l2.527,1.47l1.641-1.39L208.859,29.157z M193.924,17.415V5.879l-1,1.072v10.463H193.924z M193.924,29.077v-7.662h-1v6.828
		L193.924,29.077z"/>
	<path fill="#FFFFFF" d="M223.924,15.135v0.755v12.274c-4,1.748-7.122,3.536-9.665,5.363l-5.335-3.933v-0.079l1-0.834V15.73
		c1-0.503,2.771-1.363,4.612-2.582c1.84-1.217,2.612-2.317,3.75-3.297l5.638,5.204V15.135z M217.924,30.388v-14.3l-3.188-2.979
		l0.188,0.119v14.817l2.99,2.502L217.924,30.388z"/>
	<path fill="#FFFFFF" d="M241.908,14.84l-3.734,3.711c-1.377-1.085-2.78-2.635-3.576-4.647l-0.674,0.357v13.307l3.813,1.986
		l1.39-1.311l0.557,0.437l-5.446,4.886l-7.313-4.051v-0.08l1-0.954v-12.87l-0.993-1.867l-0.972,1.271l-0.308-0.437l5.01-4.727
		l3.618,3.813l4.072-3.813C239.357,11.82,240.558,13.483,241.908,14.84z"/>
	<path fill="#FFFFFF" d="M263.04,28.684l-5.415,4.843l-4.701-3.144V15.814l-2.493-2.229l-0.507,0.595v14.261l2.666,1.47
		l-4.356,3.615l-5.31-3.575v-0.079l1-0.755V15.611l-0.909-1.867l-0.931,1.271l-0.287-0.437l5.021-4.727l3.623,3.813l3.368-3.813
		l5.116,4.608v0.08l-1,0.993v12.513l2.657,1.47l1.607-1.311L263.04,28.684z"/>
	<path fill="#FFFFFF" d="M273.725,28.68l-5.281,4.846l-5.52-3.853v-0.08l1-0.755V15.532l-1.237-1.788l-1.116,1.271l-0.279-0.437
		l4.316-4.727l4.315,4.528v0.08l-1,0.755v12.791l2.44,1.51l1.578-1.311L273.725,28.68z M271.778,3.734
		c-0.875,0.794-2.477,2.317-4.807,4.568l-3.257-3.099l-1.152,1.073l-0.397-0.395c2.066-1.891,3.655-3.415,4.767-4.571l3.337,3.059
		l1.112-1.033L271.778,3.734z"/>
	<path fill="#FFFFFF" d="M292.911,28.684l-5.351,4.843l-4.636-3.144V15.814l-2.493-2.229l-0.507,0.595v14.261l2.601,1.47
		l-4.324,3.615l-5.277-3.575v-0.079l1-0.755V15.611l-0.973-1.867l-0.963,1.271l-0.303-0.437l5.013-4.727l3.618,3.813l3.431-3.813
		l5.178,4.608v0.08l-1,0.993v12.513l2.592,1.47l1.575-1.311L292.911,28.684z"/>
	<path fill="#FFFFFF" d="M311.104,32.732c0,0.9-0.385,1.748-1.152,2.542l-5.243,5.481c-1.695-1.616-3.496-2.423-5.403-2.423
		c-2.436,0-4.462,0.741-6.078,2.225l-0.158-0.119c0.582-1.695,1.522-3.092,2.82-4.19c1.297-1.1,2.754-1.649,4.37-1.649
		c2.913,0,5.27,0.834,7.071,2.503c0.582-0.503,0.874-1.046,0.874-1.629c0-0.742-0.569-1.311-1.708-1.708
		c-2.198-0.768-3.336-2.052-3.416-3.853l-4.084,3.615l-6.071-4.091v-0.08v-0.755V15.89c4-1.774,6.987-3.8,9.609-6.078l6.391,4.846
		v0.08l-1,0.993v12.354c0,0.794,0.676,1.563,1.589,2.304C310.427,31.13,311.104,31.911,311.104,32.732z M301.924,29.236V15.89
		l-2.812-2.662l-0.188,0.278v14.539l2.493,1.827L301.924,29.236z"/>
	<path fill="#FFFFFF" d="M342.524,2.86c-0.557,3.125-2.6,4.714-5.6,4.767v27.788h0.795l-8.083-14.033
		c-1.083-0.45-2.68-0.959-4.054-0.959c-1.057,0-2.658-0.071-3.658,0.352v7.388c2,0,4.808,0.649,6.257,1.947l1.488-1.39l0.567,0.477
		l-4.602,4.806c-1.245-0.741-2.612-1.112-4.147-1.112c-2.595,0-3.881,1.073-3.881,3.218c0,1.059,0.356,1.92,1.058,2.582
		c0.701,0.662,1.612,0.993,2.724,0.993c1.059,0,1.908-0.265,2.543-0.794l-0.238,0.874c-0.794,0.344-1.628,0.516-2.502,0.516
		c-3.945,0-5.918-1.86-5.918-5.579c0-2.019,0.151-3.627,1.555-4.823c1.245-1.062,2.096-1.634,4.096-1.714v-7.749h0.228
		c-1.404,0-2.238,0-2.502,1h-0.159c-0.397,0-0.596-0.917-0.596-1.765c0-2.356,1.178-3.235,3.535-3.235h-0.506V8.342
		c0-0.768-0.257-1.258-0.442-1.47c-0.476-0.503-0.73-0.755-1.312-0.755c-1.325,0-1.901,0.834-2.008,2.502l-0.129,0.04
		c-0.609-0.82-0.879-1.867-0.879-3.138c0-1.297,0.506-2.344,1.484-3.138c0.924-0.715,2.071-1.072,3.418-1.072
		c1.454,0,2.714,0.451,3.771,1.35c0.687,0.583,1.482,1.603,2.381,3.059l4.243,6.872c1.031,0.344,1.652,0.516,2.975,0.516
		c1.004,0,1.498-0.172,2.498-0.516V7.627c-2,0-3.344-0.608-5.056-1.827l-1.224,1.668l-0.375-0.477l5.233-5.402
		c1.324,1.218,2.749,1.827,4.206,1.827c1.615,0,2.388-0.211,3.156-0.635L342.524,2.86z M329.097,20.819l-6.396-10.404h-0.777v9.765
		c1-0.423,2.671-0.296,3.645-0.296C326.833,19.883,328.255,20.421,329.097,20.819z M336.924,24.415V13.188
		c-1,0.344-1.485,0.516-2.484,0.516c-1.343,0-2.118,0.285-2.88-0.007l6.396,10.718H336.924z"/>
	<path fill="#FFFFFF" d="M355.27,17.161l-8.346,5.363v4.886l4.85,2.423l2.406-2.105l0.627,0.477l-6.048,5.323l-7.835-4.052v-0.08
		v-0.834V15.373c4-1.376,6.577-3.204,9.834-5.482L355.27,17.161z M350.622,19.544l-3.279-6.515l-0.419,0.08v8.66L350.622,19.544z"/>
	<path fill="#FFFFFF" d="M381.924,13.506l-1,0.794V27.29c-3,1.483-5.451,3.575-8.812,6.276l-4.089-3.376l-4.815,3.376l-6.283-4.647
		v-0.08l1-0.953V16.604c0-1.483,0.203-2.555-0.432-3.218c-0.795-0.847-0.931-1.748-0.931-2.701c0-1.35,0.752-2.37,1.998-3.059
		c1.006-0.529,2.314-0.794,3.799-0.794l0.311,0.596c-1.324-0.105-1.971,0.371-1.971,1.43c0,0.768,0.435,1.489,1.614,2.165
		c1.178,0.675,1.611,1.94,1.611,3.793v12.791l2.835,2.463l0.165-0.278V14.976l-1.834-1.51l3.357-3.654l3.477,3.138v14.657
		l3.33,2.463l0.67-0.278V14.976l-1.984-1.51l3.476-3.654l4.509,3.615V13.506z"/>
	<path fill="#FFFFFF" d="M400.001,8.461c0,0.742-0.689,2.171-2.065,4.29l-4.117,5.362l4.105,2.384v8.62
		c-2,1.483-4.08,3.019-5.457,4.608c-1.166-1.112-2.125-1.668-3.502-1.668c-3.283,0-4.77,1.007-4.77,3.019
		c0,1.986,1.189,3.019,3.413,3.098l-0.556,0.675c-2.331-0.397-3.477-1.695-3.477-3.893c0-0.794,0.314-1.734,0.924-2.82
		c0.185-0.371,0.732-1.231,1.632-2.582l2.925-5.601l-6.133-2.741v-6.157c3-0.874,6.295-2.647,9.393-5.323
		c0.768,1.086,2.194,1.628,3.466,1.628c0.82,0,1.737-0.264,2.348-0.794c0.608-0.53,1.016-1.218,1.016-2.066
		c0-0.82-0.188-1.496-0.665-2.026l1.019,0.159C399.816,7.084,400.001,7.694,400.001,8.461z M392.924,23.397l-1.635-0.562
		l-4.277,7.581h0.039c1.007,0,1.885-1.463,3.473-1.463c1.113,0,1.4-0.205,2.4,0.404V23.397z M396.347,15.415h-0.04
		c-0.933,0-2.332,0.118-3.291,0.118c-1.199,0-3.092-1.232-4.092-2.345v5.084l3.115,2.146L396.347,15.415z"/>
</g>
</svg>
